<svg width="379" height="139" viewBox="0 0 379 139" fill="none" xmlns="http://www.w3.org/2000/svg">
<path d="M31.04 65.552C31.04 67.088 30.656 68.496 29.888 69.776C29.12 71.056 28.096 72.08 26.816 72.848C25.536 73.616 24.128 74 22.592 74H5.504C4.69333 74 3.98933 73.7227 3.392 73.168C2.83733 72.5707 2.56 71.8667 2.56 71.056V33.68C2.56 32.8267 2.83733 32.1227 3.392 31.568C3.98933 31.0133 4.69333 30.736 5.504 30.736H22.592C24.128 30.736 25.536 31.12 26.816 31.888C28.096 32.656 29.12 33.68 29.888 34.96C30.656 36.24 31.04 37.6693 31.04 39.248V65.552ZM23.424 65.552V39.248C23.424 38.6507 23.1467 38.352 22.592 38.352H11.072C10.5173 38.352 10.24 38.6293 10.24 39.184V65.616C10.24 66.1707 10.5173 66.448 11.072 66.448H22.592C22.8053 66.448 22.9973 66.3627 23.168 66.192C23.3387 65.9787 23.424 65.7653 23.424 65.552ZM64.0235 71.056C64.0235 71.8667 63.7248 72.5707 63.1275 73.168C62.5728 73.7227 61.9115 74 61.1435 74H39.1275C38.3595 74 37.6768 73.7227 37.0795 73.168C36.5248 72.5707 36.2475 71.8667 36.2475 71.056V33.68C36.2475 32.8267 36.5248 32.1227 37.0795 31.568C37.6768 31.0133 38.3595 30.736 39.1275 30.736H61.1435C61.9115 30.736 62.5728 31.0133 63.1275 31.568C63.7248 32.1227 64.0235 32.8267 64.0235 33.68V35.408C64.0235 36.2187 63.7248 36.9227 63.1275 37.52C62.5728 38.0747 61.9115 38.352 61.1435 38.352H44.6315C44.1195 38.352 43.8635 38.6293 43.8635 39.184V47.696C43.8635 48.2933 44.1195 48.592 44.6315 48.592H58.8395C59.6928 48.592 60.3968 48.8693 60.9515 49.424C61.5062 49.9787 61.7835 50.6613 61.7835 51.472V53.264C61.7835 54.0747 61.5062 54.7787 60.9515 55.376C60.3968 55.9307 59.6928 56.208 58.8395 56.208H44.6315C44.1195 56.208 43.8635 56.464 43.8635 56.976V65.616C43.8635 66.1707 44.1195 66.448 44.6315 66.448H61.1435C61.9115 66.448 62.5728 66.7253 63.1275 67.28C63.7248 67.8347 64.0235 68.5387 64.0235 69.392V71.056ZM96.8985 71.056C96.8985 71.8667 96.5998 72.5707 96.0025 73.168C95.4478 73.7227 94.7865 74 94.0185 74H72.0025C71.2345 74 70.5518 73.7227 69.9545 73.168C69.3998 72.5707 69.1225 71.8667 69.1225 71.056V33.68C69.1225 32.8267 69.3998 32.1227 69.9545 31.568C70.5518 31.0133 71.2345 30.736 72.0025 30.736H73.7945C74.6052 30.736 75.2878 31.0133 75.8425 31.568C76.4398 32.1227 76.7385 32.8267 76.7385 33.68V65.616C76.7385 66.1707 76.9945 66.448 77.5065 66.448H94.0185C94.7865 66.448 95.4478 66.7253 96.0025 67.28C96.5998 67.8347 96.8985 68.5387 96.8985 69.392V71.056ZM109.678 71.056C109.678 71.8667 109.379 72.5707 108.782 73.168C108.227 73.7227 107.544 74 106.734 74H105.006C104.195 74 103.491 73.7227 102.894 73.168C102.339 72.5707 102.062 71.8667 102.062 71.056V33.68C102.062 32.8267 102.339 32.1227 102.894 31.568C103.491 31.0133 104.195 30.736 105.006 30.736H106.734C107.544 30.736 108.227 31.0133 108.782 31.568C109.379 32.1227 109.678 32.8267 109.678 33.68V71.056ZM147.961 70.16C148.217 71.1413 148.067 72.0373 147.513 72.848C146.958 73.616 146.169 74 145.145 74H143.289C142.691 74 142.115 73.808 141.561 73.424C141.049 73.04 140.686 72.5707 140.473 72.016L138.041 64.656C137.87 64.1013 137.507 63.824 136.953 63.824H126.009C125.454 63.824 125.091 64.1013 124.921 64.656L122.489 72.016C122.275 72.5707 121.913 73.04 121.401 73.424C120.889 73.808 120.313 74 119.673 74H117.817C116.793 74 116.003 73.616 115.449 72.848C114.851 71.9947 114.723 71.0987 115.065 70.16L127.481 32.72C127.694 32.1227 128.035 31.6533 128.505 31.312C129.017 30.928 129.571 30.736 130.169 30.736H132.793C133.39 30.736 133.945 30.928 134.457 31.312C134.969 31.6533 135.31 32.1227 135.481 32.72L147.961 70.16ZM135.033 55.44L131.833 45.648C131.619 45.3493 131.385 45.3493 131.128 45.648L127.929 55.44C127.843 55.6533 127.865 55.8453 127.993 56.016C128.121 56.1867 128.291 56.272 128.505 56.272H134.457C134.67 56.272 134.841 56.1867 134.969 56.016C135.097 55.8453 135.118 55.6533 135.033 55.44ZM196.415 71.056C196.415 71.8667 196.138 72.5707 195.583 73.168C195.028 73.7227 194.324 74 193.471 74H191.743C190.932 74 190.228 73.7227 189.631 73.168C189.076 72.5707 188.799 71.8667 188.799 71.056V56.976C188.799 56.464 188.522 56.208 187.967 56.208H176.447C175.892 56.208 175.615 56.464 175.615 56.976V71.056C175.615 71.8667 175.316 72.5707 174.719 73.168C174.164 73.7227 173.482 74 172.671 74H170.879C170.068 74 169.364 73.7227 168.767 73.168C168.212 72.5707 167.935 71.8667 167.935 71.056V33.68C167.935 32.8267 168.212 32.1227 168.767 31.568C169.364 31.0133 170.068 30.736 170.879 30.736H172.671C173.482 30.736 174.164 31.0133 174.719 31.568C175.316 32.1227 175.615 32.8267 175.615 33.68V47.696C175.615 48.2933 175.892 48.592 176.447 48.592H187.967C188.522 48.592 188.799 48.2933 188.799 47.696V33.68C188.799 32.8267 189.076 32.1227 189.631 31.568C190.228 31.0133 190.932 30.736 191.743 30.736H193.471C194.324 30.736 195.028 31.0133 195.583 31.568C196.138 32.1227 196.415 32.8267 196.415 33.68V71.056ZM230.935 65.552C230.935 67.088 230.551 68.496 229.783 69.776C229.015 71.056 227.991 72.08 226.711 72.848C225.431 73.616 224.023 74 222.487 74H210.199C208.663 74 207.233 73.616 205.911 72.848C204.631 72.08 203.607 71.056 202.839 69.776C202.071 68.496 201.687 67.088 201.687 65.552V39.248C201.687 37.6693 202.071 36.24 202.839 34.96C203.607 33.68 204.631 32.656 205.911 31.888C207.233 31.12 208.663 30.736 210.199 30.736H222.487C224.023 30.736 225.431 31.12 226.711 31.888C227.991 32.656 229.015 33.68 229.783 34.96C230.551 36.24 230.935 37.6693 230.935 39.248V65.552ZM223.319 65.552V39.248C223.319 38.6507 223.041 38.352 222.487 38.352H210.199C209.985 38.352 209.772 38.4373 209.559 38.608C209.388 38.7787 209.303 38.992 209.303 39.248V65.552C209.303 65.7653 209.388 65.9787 209.559 66.192C209.772 66.3627 209.985 66.448 210.199 66.448H222.487C222.7 66.448 222.892 66.3627 223.063 66.192C223.233 65.9787 223.319 65.7653 223.319 65.552ZM263.899 71.056C263.899 71.8667 263.6 72.5707 263.003 73.168C262.448 73.7227 261.787 74 261.019 74H239.003C238.235 74 237.552 73.7227 236.955 73.168C236.4 72.5707 236.123 71.8667 236.123 71.056V33.68C236.123 32.8267 236.4 32.1227 236.955 31.568C237.552 31.0133 238.235 30.736 239.003 30.736H240.795C241.605 30.736 242.288 31.0133 242.843 31.568C243.44 32.1227 243.739 32.8267 243.739 33.68V65.616C243.739 66.1707 243.995 66.448 244.507 66.448H261.019C261.787 66.448 262.448 66.7253 263.003 67.28C263.6 67.8347 263.899 68.5387 263.899 69.392V71.056ZM302.918 71.056C302.918 71.8667 302.64 72.5707 302.086 73.168C301.531 73.7227 300.827 74 299.974 74H298.246C297.435 74 296.731 73.7227 296.134 73.168C295.579 72.5707 295.302 71.8667 295.302 71.056V51.792C295.302 51.6213 295.216 51.5147 295.046 51.472C294.918 51.4293 294.811 51.472 294.726 51.6L288.582 64.272C288.454 64.6133 288.176 64.912 287.75 65.168C287.323 65.424 286.918 65.6373 286.534 65.808C286.192 65.936 286.022 66 286.022 66C284.699 66 283.824 65.424 283.398 64.272L277.254 51.6C277.211 51.472 277.104 51.4293 276.934 51.472C276.763 51.5147 276.678 51.6213 276.678 51.792V71.056C276.678 71.8667 276.379 72.5707 275.782 73.168C275.227 73.7227 274.544 74 273.734 74H271.942C271.131 74 270.427 73.7227 269.83 73.168C269.275 72.5707 268.998 71.8667 268.998 71.056V33.68C268.998 32.8267 269.275 32.1227 269.83 31.568C270.427 31.0133 271.131 30.736 271.942 30.736H273.798C274.992 30.736 275.867 31.2907 276.422 32.4C276.635 32.8693 277.062 33.7867 277.702 35.152C278.384 36.4747 279.174 38.0533 280.07 39.888C280.966 41.7227 281.883 43.664 282.822 45.712C283.803 47.7173 284.742 49.6373 285.638 51.472C285.723 51.6427 285.83 51.728 285.958 51.728C286.128 51.728 286.256 51.6427 286.342 51.472L295.494 32.4C296.048 31.2907 296.944 30.736 298.182 30.736H299.974C300.827 30.736 301.531 31.0133 302.086 31.568C302.64 32.1227 302.918 32.8267 302.918 33.68V71.056ZM341.211 70.16C341.467 71.1413 341.317 72.0373 340.763 72.848C340.208 73.616 339.419 74 338.395 74H336.539C335.941 74 335.365 73.808 334.811 73.424C334.299 73.04 333.936 72.5707 333.723 72.016L331.291 64.656C331.12 64.1013 330.757 63.824 330.203 63.824H319.259C318.704 63.824 318.341 64.1013 318.171 64.656L315.739 72.016C315.525 72.5707 315.163 73.04 314.651 73.424C314.139 73.808 313.563 74 312.923 74H311.067C310.043 74 309.253 73.616 308.699 72.848C308.101 71.9947 307.973 71.0987 308.315 70.16L320.731 32.72C320.944 32.1227 321.285 31.6533 321.755 31.312C322.267 30.928 322.821 30.736 323.419 30.736H326.043C326.64 30.736 327.195 30.928 327.707 31.312C328.219 31.6533 328.56 32.1227 328.731 32.72L341.211 70.16ZM328.283 55.44L325.083 45.648C324.869 45.3493 324.635 45.3493 324.378 45.648L321.179 55.44C321.093 55.6533 321.115 55.8453 321.243 56.016C321.371 56.1867 321.541 56.272 321.755 56.272H327.707C327.92 56.272 328.091 56.1867 328.219 56.016C328.347 55.8453 328.368 55.6533 328.283 55.44ZM375.747 71.056C375.747 71.8667 375.448 72.5707 374.851 73.168C374.296 73.7227 373.614 74 372.803 74H370.947C369.795 74 368.942 73.5093 368.387 72.528L354.755 48.912C354.67 48.7413 354.542 48.6987 354.371 48.784C354.2 48.8267 354.115 48.912 354.115 49.04V71.056C354.115 71.8667 353.816 72.5707 353.219 73.168C352.664 73.7227 352.003 74 351.235 74H349.443C348.632 74 347.928 73.7227 347.331 73.168C346.776 72.5707 346.499 71.8667 346.499 71.056V33.68C346.499 32.8267 346.776 32.1227 347.331 31.568C347.928 31.0133 348.632 30.736 349.443 30.736H351.299C352.451 30.736 353.304 31.2267 353.859 32.208L367.491 55.824C367.619 55.9947 367.747 56.0587 367.875 56.016C368.046 55.9733 368.131 55.8667 368.131 55.696V33.68C368.131 32.8267 368.408 32.1227 368.963 31.568C369.56 31.0133 370.264 30.736 371.075 30.736H372.803C373.614 30.736 374.296 31.0133 374.851 31.568C375.448 32.1227 375.747 32.8267 375.747 33.68V71.056Z" fill="#B3B3B3"/>
<path d="M182.5 60L191.368 87.2938L220.067 87.2938L196.849 104.162L205.718 131.456L182.5 114.588L159.282 131.456L168.151 104.162L144.933 87.2938L173.632 87.2938L182.5 60Z" fill="#1DB954"/>
</svg>
